<svg fill="#FFFFFF" xmlns="http://www.w3.org/2000/svg"  viewBox="0 0 64 64" width="64px" height="64px"><path d="M 31.697266 5.6425781 C 31.518844 5.6438001 31.339636 5.6608257 31.162109 5.6933594 C 29.741894 5.953629 28.562279 7.0541339 27.765625 8.6132812 C 27.538664 9.0574723 27.417327 9.6302582 27.253906 10.154297 C 21.886062 10.555862 17.867901 11.183365 15.632812 12.021484 C 14.197442 12.559724 13.246711 13.147831 12.615234 13.787109 C 11.983758 14.426387 11.685547 15.152926 11.685547 15.792969 C 11.685547 16.791116 12.350134 17.586141 13.232422 18.189453 C 14.11471 18.792766 15.30838 19.286478 16.84375 19.703125 C 19.914491 20.536419 24.358422 21.031302 30.189453 20.890625 C 34.85757 20.777995 38.607781 20.51018 41.300781 19.953125 C 42.647281 19.674597 43.734019 19.332729 44.582031 18.826172 C 45.430043 18.319615 46.102014 17.519619 46.146484 16.542969 C 46.168764 16.052387 45.933576 15.601903 45.660156 15.3125 C 45.386736 15.023097 45.071705 14.830263 44.724609 14.662109 C 44.030418 14.325803 43.178739 14.094483 42.197266 13.90625 C 40.505323 13.581759 38.421698 13.490354 36.441406 13.484375 C 36.407456 12.897053 36.336102 12.374844 36.261719 11.857422 C 43.40874 12.075727 47.788772 13.310136 49.402344 14.654297 C 50.370431 15.460747 50.481152 16.016089 50.203125 16.761719 C 49.925098 17.507349 48.972612 18.510964 47.306641 19.388672 A 1.0001 1.0001 0 0 0 46.785156 20.121094 L 41.853516 51.886719 C 41.274799 53.228167 39.954069 54.341659 38.113281 55.113281 C 36.248998 55.894752 33.911119 56.306641 31.601562 56.306641 C 29.292006 56.306641 27.009851 55.893445 25.259766 55.121094 C 23.50968 54.348743 22.348564 53.266595 21.957031 51.941406 C 20.247235 46.154334 16.748565 27.794116 16.277344 25.314453 C 19.79612 26.128932 31.75208 28.470661 42.316406 24.949219 A 1.0005646 1.0005646 0 1 0 41.683594 23.050781 C 30.110501 26.908479 15.257813 23.033203 15.257812 23.033203 A 1.0001 1.0001 0 0 0 14.017578 24.185547 C 14.017578 24.185547 18.085492 45.895644 20.039062 52.507812 C 20.648529 54.570625 22.362789 56.029523 24.451172 56.951172 C 26.539555 57.872821 29.059245 58.306641 31.601562 58.306641 C 34.143881 58.306641 36.709783 57.86956 38.886719 56.957031 C 41.063655 56.044502 42.896325 54.630836 43.736328 52.607422 A 1.0001 1.0001 0 0 0 43.800781 52.376953 L 48.697266 20.84375 C 50.339464 19.894236 51.577422 18.803754 52.078125 17.460938 C 52.630911 15.978442 52.083825 14.285238 50.681641 13.117188 C 48.298043 11.131568 43.473434 9.9649899 35.861328 9.8320312 C 35.620723 9.0343184 35.369157 8.2538862 35.005859 7.6777344 C 34.186849 6.3788678 32.946217 5.6340245 31.697266 5.6425781 z M 31.960938 7.6425781 C 32.397763 7.6949358 32.835541 7.9846341 33.314453 8.7441406 C 33.471974 8.9939519 33.58848 9.4596772 33.728516 9.8144531 C 33.032508 9.8205131 32.475041 9.7760471 31.734375 9.7988281 C 30.764956 9.8286441 30.271831 9.9383546 29.394531 9.984375 C 29.453641 9.8464812 29.482731 9.6489673 29.546875 9.5234375 C 30.148784 8.3454287 30.934902 7.7680116 31.523438 7.6601562 C 31.670571 7.6331924 31.815329 7.6251256 31.960938 7.6425781 z M 31.796875 11.796875 C 32.714334 11.768655 33.408993 11.828418 34.253906 11.830078 C 34.386881 12.615396 34.527881 13.391714 34.544922 14.431641 A 1.0001 1.0001 0 0 0 35.568359 15.416016 C 37.684441 15.365176 40.05776 15.53306 41.820312 15.871094 C 42.701589 16.040111 43.435769 16.26051 43.853516 16.462891 C 43.961486 16.515201 43.975255 16.537191 44.035156 16.578125 C 43.999096 16.723369 43.975146 16.858216 43.554688 17.109375 C 43.034355 17.420193 42.121859 17.740668 40.896484 17.994141 C 38.445735 18.501086 34.758461 18.779255 30.142578 18.890625 C 24.450609 19.027948 20.155697 18.530144 17.367188 17.773438 C 15.972933 17.395083 14.956071 16.943797 14.361328 16.537109 C 13.766585 16.130422 13.685547 15.851822 13.685547 15.792969 C 13.685547 15.728509 13.692147 15.540597 14.037109 15.191406 C 14.382039 14.842216 15.080231 14.364667 16.333984 13.894531 C 18.210167 13.190995 21.913482 12.600936 26.816406 12.195312 C 26.720926 12.991915 26.619456 13.786537 26.669922 14.695312 A 1.0005731 1.0005731 0 1 0 28.667969 14.583984 C 28.615319 13.635877 28.695509 12.807752 28.816406 12.035156 C 29.904022 11.969496 30.551817 11.835168 31.796875 11.796875 z"/></svg>